# xmcd
#
# Track frame offsets:
#	150
#	17324
#	34338
#	51846
#	69483
#	84003
#	101382
#	117243
#	135925
#	148497
#	151483
#
# Disc length: 2305 seconds
#
# Revision: 0
# Processed by: cddbd v1.5.2PL0 Copyright (c) Steve Scherf et al.
# Submitted via: EasyCDDAExtractor 11.0.2.1
#
DISCID=8708ff0b
DTITLE=Gary Sterling - All About Love
DYEAR=2008
DGENRE=Easy Listening
TTITLE0=Where Has All Our Love Gone
TTITLE1=A Song Of Love
TTITLE2=Tonight
TTITLE3=Its My Life
TTITLE4=A Troubled Mind
TTITLE5=Ready For Love
TTITLE6=Prisoner Of Love
TTITLE7=Something Special
TTITLE8=Old Man River
TTITLE9=Bhai Quote
TTITLE10=Its Time
EXTD=
EXTT0=
EXTT1=
EXTT2=
EXTT3=
EXTT4=
EXTT5=
EXTT6=
EXTT7=
EXTT8=
EXTT9=
EXTT10=
PLAYORDER=
